# Blender v3.0.1 OBJ File: 'BlenderPrototype.blend'
# www.blender.org
mtllib Banner_wall.mtl
v 0.402942 -0.050210 -0.000331
v 0.402942 0.001480 -0.030174
v 0.402942 -0.050210 0.059355
v 0.402942 0.001480 0.089198
v 0.402942 0.053169 0.059355
v 0.402942 0.053169 -0.000331
v 0.483594 -0.040671 0.005176
v 0.483594 0.001480 -0.019160
v 0.483594 -0.040671 0.053847
v 0.483594 0.001480 0.078183
v 0.483594 0.043630 0.053847
v 0.483594 0.043630 0.005176
v 0.483594 -0.025891 0.021491
v 0.483594 0.001480 0.013471
v 0.483594 -0.025891 0.037532
v 0.483594 0.001480 0.045553
v 0.483594 0.028851 0.037532
v 0.483594 0.028851 0.021491
v 0.543195 -0.014450 0.019825
v 0.543195 0.001480 0.010137
v 0.543195 -0.014450 0.039199
v 0.543195 0.001480 0.048886
v 0.543195 0.017410 0.039199
v 0.543195 0.017410 0.019825
v 0.556042 -0.050622 0.019825
v 0.556042 0.001480 0.010137
v 0.556042 -0.050622 0.039199
v 0.556042 0.001480 0.048886
v 0.556042 0.053581 0.039199
v 0.556042 0.053581 0.019825
v 0.790784 -0.014269 0.019825
v 0.847185 0.001480 0.020729
v 0.790784 -0.014269 0.039199
v 0.847185 0.001480 0.038294
v 0.790784 0.017228 0.039199
v 0.790784 0.017228 0.019825
v 0.792226 0.001480 0.044641
v 0.793600 0.001480 0.014407
v 0.402942 -0.032319 0.009998
v 0.402942 0.001480 -0.009516
v 0.402942 -0.032319 0.049026
v 0.402942 0.001480 0.068540
v 0.402942 0.035279 0.049026
v 0.402942 0.035279 0.009998
v 0.220423 -0.032319 0.049026
v 0.220423 -0.032319 0.009998
v 0.220423 0.035279 0.009998
v 0.220423 0.035279 0.049026
v 0.220423 0.001480 0.068540
v 0.220423 0.001480 -0.009516
v 0.286841 -0.032319 0.009998
v 0.286841 0.035279 0.049026
v 0.286841 0.001480 -0.009516
v 0.286841 -0.032319 0.049026
v 0.286841 0.035279 0.009998
v 0.286841 0.001480 0.068540
v 0.284328 -0.039570 0.053212
v 0.222936 -0.039570 0.053212
v 0.284328 0.042530 0.005812
v 0.222936 0.042530 0.005812
v 0.284328 0.001480 0.076912
v 0.222936 0.001480 0.076912
v 0.222936 0.042529 0.053212
v 0.222936 0.001480 -0.017888
v 0.222936 -0.039570 0.005812
v 0.284328 -0.039570 0.005812
v 0.284328 0.042529 0.053212
v 0.284328 0.001480 -0.017888
v -0.348832 -0.050210 -0.000331
v -0.348832 0.001480 -0.030174
v -0.348832 -0.050210 0.059355
v -0.348832 0.001480 0.089198
v -0.348832 0.053169 0.059355
v -0.348832 0.053169 -0.000331
v -0.429484 -0.040671 0.005176
v -0.429484 0.001480 -0.019160
v -0.429484 -0.040671 0.053847
v -0.429484 0.001480 0.078183
v -0.429484 0.043630 0.053847
v -0.429484 0.043630 0.005176
v -0.429484 -0.025891 0.021491
v -0.429484 0.001480 0.013471
v -0.429484 -0.025891 0.037532
v -0.429484 0.001480 0.045553
v -0.429484 0.028851 0.037532
v -0.429484 0.028851 0.021491
v -0.489085 -0.014450 0.019825
v -0.489085 0.001480 0.010137
v -0.489085 -0.014450 0.039199
v -0.489085 0.001480 0.048886
v -0.489085 0.017410 0.039199
v -0.489085 0.017410 0.019825
v -0.501932 -0.050622 0.019825
v -0.501932 0.001480 0.010137
v -0.501932 -0.050622 0.039199
v -0.501932 0.001480 0.048886
v -0.501932 0.053581 0.039199
v -0.501932 0.053581 0.019825
v -0.736674 -0.014269 0.019825
v -0.793076 0.001480 0.020729
v -0.736674 -0.014269 0.039199
v -0.793076 0.001480 0.038294
v -0.736674 0.017228 0.039199
v -0.736674 0.017228 0.019825
v -0.738116 0.001480 0.044641
v -0.739491 0.001480 0.014407
v -0.348832 -0.032319 0.009998
v -0.348832 0.001480 -0.009516
v -0.348832 -0.032319 0.049026
v -0.348832 0.001480 0.068540
v -0.348832 0.035279 0.049026
v -0.348832 0.035279 0.009998
v -0.220423 -0.032319 0.049026
v -0.220423 -0.032319 0.009998
v -0.220423 0.035279 0.009998
v -0.220423 0.035279 0.049026
v -0.220423 0.001480 0.068540
v -0.220423 0.001480 -0.009516
v -0.286841 -0.032319 0.009998
v -0.286841 0.035279 0.049026
v -0.286841 0.001480 -0.009516
v -0.286841 -0.032319 0.049026
v -0.286841 0.035279 0.009998
v -0.286841 0.001480 0.068540
v -0.284328 -0.039570 0.053212
v -0.222936 -0.039570 0.053212
v -0.284328 0.042530 0.005812
v -0.222936 0.042530 0.005812
v -0.284328 0.001480 0.076912
v -0.222936 0.001480 0.076912
v -0.222936 0.042529 0.053212
v -0.222936 0.001480 -0.017888
v -0.222936 -0.039570 0.005812
v -0.284328 -0.039570 0.005812
v -0.284328 0.042529 0.053212
v -0.284328 0.001480 -0.017888
v 0.000000 -0.032319 0.009998
v 0.000000 0.001480 -0.009516
v 0.000000 -0.032319 0.049026
v 0.000000 0.001480 0.068540
v 0.000000 0.035279 0.049026
v 0.000000 0.035279 0.009998
v -0.282171 -0.002856 0.063469
v 0.278729 -0.002856 0.063469
v -0.282171 -1.773746 0.063469
v 0.278729 -1.773746 0.063469
v -0.001721 -0.002856 0.063469
v -0.001721 -1.773746 0.063469
v 0.278729 -2.793281 0.063469
v -0.282171 -2.793281 0.063469
v -0.282171 -1.773746 0.044159
v -0.282171 -0.002856 0.044159
v -0.001721 -0.002856 0.044159
v 0.278729 -0.002856 0.044159
v 0.278729 -1.773746 0.044159
v -0.001721 -1.773746 0.044159
v 0.278729 -2.793281 0.044159
v -0.282171 -2.793281 0.044159
v -0.282171 -1.728126 0.063469
v 0.261962 -1.728126 0.063469
v -0.001721 -1.728126 0.063469
v -0.282171 -1.728126 0.044159
v 0.261962 -1.728126 0.044159
v -0.001721 -1.728126 0.044159
v -0.282171 -1.143705 0.063469
v -0.282171 -1.143705 0.044159
v 0.293491 -0.865553 0.063469
v -0.001721 -0.865553 0.063469
v 0.293491 -0.865553 0.044159
v -0.001721 -0.865553 0.044159
v -0.258415 -1.090077 0.063469
v -0.258415 -1.090077 0.044159
v 0.278441 -0.832672 0.063469
v -0.001721 -0.832672 0.063469
v 0.278441 -0.832672 0.044159
v -0.001721 -0.832672 0.044159
v -0.282171 -1.047993 0.063469
v -0.282171 -1.047993 0.044159
v 0.290059 -0.769841 0.063469
v -0.001721 -0.769841 0.063469
v 0.290059 -0.769841 0.044159
v -0.001721 -0.769841 0.044159
v -0.270361 -2.283513 0.063469
v -0.270361 -2.283513 0.044159
v -0.282171 -2.329634 0.044159
v -0.282171 -2.326779 0.063469
v -0.282171 -2.269522 0.044159
v -0.282171 -2.264036 0.063469
v 0.341317 -0.032319 0.009998
v 0.341317 0.011473 0.049026
v 0.341317 0.001480 -0.009516
v 0.341317 -0.032319 0.049026
v 0.341317 0.011473 0.009998
v 0.341317 0.001480 0.068540
v 0.361224 -0.032319 0.009998
v 0.361224 0.035279 0.049026
v 0.361224 0.001480 -0.009516
v 0.361224 -0.032319 0.049026
v 0.361224 0.035279 0.009998
v 0.361224 0.001480 0.068540
v 0.327768 0.004811 -0.503859
v 0.300390 0.016775 -0.503859
v 0.300390 -0.017198 -0.503859
v 0.300390 -0.000212 -0.503859
v -0.333414 -0.015507 -0.503859
v -0.333414 0.001480 -0.503859
v -0.333414 0.018467 -0.503859
v -0.302259 -0.015507 -0.503859
v -0.302259 0.001480 -0.503859
v -0.302259 0.018467 -0.503859
v 0.327768 -0.017198 -0.503859
v 0.327768 -0.000212 -0.503859
v -0.307056 0.001480 -0.085147
v -0.307056 0.013235 -0.085147
v -0.328617 -0.010276 -0.085147
v -0.307056 -0.010276 -0.085147
v -0.328617 0.001480 -0.085147
v -0.328617 0.013235 -0.085147
v 0.304606 -0.012863 -0.085147
v 0.304606 -0.001108 -0.085147
v 0.304606 0.010648 -0.085147
v 0.323553 -0.012863 -0.085147
v 0.323553 -0.001108 -0.085147
v 0.323553 0.002368 -0.085147
vn 0.0000 -1.0000 -0.0000
vn 0.0000 1.0000 0.0000
vn 0.0000 -0.5000 0.8660
vn 0.0000 -0.5000 -0.8660
vn 0.0000 0.5000 -0.8660
vn 0.0000 0.5000 0.8660
vn 0.4004 0.9163 0.0000
vn -0.9999 0.0000 0.0101
vn 0.0000 -0.9999 0.0125
vn 0.1439 0.6584 0.7388
vn 0.9999 0.0000 0.0115
vn -0.3697 0.6182 0.6937
vn -0.3696 0.6182 0.6937
vn -0.3697 0.6182 -0.6937
vn -0.3696 0.6182 -0.6937
vn -0.7671 0.6415 0.0000
vn 0.0000 0.0000 -1.0000
vn 0.0000 -0.9999 0.0104
vn -0.9999 0.0000 0.0115
vn 0.0000 0.9999 0.0125
vn 0.9999 0.0000 0.0101
vn 0.4004 0.9163 0.0094
vn 0.9648 -0.1036 -0.2418
vn 0.9648 -0.1035 -0.2418
vn -0.9648 0.1036 -0.2418
vn -0.9648 0.1035 -0.2418
vn 0.0000 0.9742 -0.2257
vn -0.9648 -0.1036 -0.2418
vn -0.9648 -0.1035 -0.2418
vn 0.9648 0.1036 -0.2418
vn 0.9648 0.1035 -0.2418
vn 0.0000 -0.9742 -0.2257
vn 0.9732 -0.0906 -0.2114
vn 0.3953 0.9045 -0.1603
vn 0.9264 0.3100 -0.2139
vn 0.0000 -0.9797 -0.2003
vn -0.9732 -0.0906 -0.2114
vn -0.9717 0.0930 -0.2170
vn -0.9717 0.0929 -0.2170
vn 0.3953 0.9045 -0.1604
vn 0.9255 0.3100 -0.2174
vn 0.1174 0.4965 -0.8600
vn 0.1174 0.4966 -0.8600
vn 1.0000 0.0000 0.0000
vn 0.1175 0.4965 0.8600
vn 0.1175 -0.9931 -0.0000
vn 0.1175 0.9931 0.0000
vn 0.1175 -0.4965 0.8600
vn 0.1174 -0.4965 -0.8600
vn 0.1175 -0.4965 -0.8600
vn -0.0025 0.3785 -0.9256
vn -0.9423 0.3347 0.0000
vn -0.0025 0.3785 0.9256
vn 0.1885 -0.9821 -0.0000
vn 0.1885 0.9821 0.0000
vn -0.0025 -0.3785 0.9256
vn -0.0025 -0.3785 -0.9256
vn 0.0256 0.2181 0.9756
vn -0.3598 -0.2555 0.8974
vn -0.3598 -0.2556 -0.8973
vn -0.3598 0.2556 -0.8973
vn -0.3598 0.2555 -0.8974
vn -0.3598 0.2555 0.8974
vn -0.3597 0.2556 0.8974
vn -0.3598 0.2556 0.8974
vn -0.9423 -0.3347 -0.0000
vn 0.2689 -0.9632 -0.0000
vn 0.1530 -0.9882 -0.0000
vn 0.1530 0.9882 0.0000
vn 0.0256 -0.2181 0.9756
vn 0.0265 -0.2182 0.9756
vn 0.0256 -0.2183 -0.9756
vn 0.0256 -0.2182 -0.9756
vn 0.0256 0.2183 -0.9756
vn 0.2689 0.9632 0.0000
vn 0.1082 -0.3335 0.9365
vn 0.1082 0.3335 0.9365
vn 0.1101 0.3409 -0.9336
vn 0.1102 -0.3409 -0.9336
vn -1.0000 -0.0000 0.0000
vn -0.1174 0.4965 -0.8600
vn -0.1175 0.4965 -0.8600
vn -0.1175 0.4965 0.8600
vn -0.1175 -0.9931 -0.0000
vn -0.1175 0.9931 0.0000
vn -0.1175 -0.4965 0.8600
vn -0.1174 -0.4965 -0.8600
vn -0.1175 -0.4965 -0.8600
vn 0.0025 0.3785 -0.9256
vn 0.9423 0.3347 0.0000
vn 0.0025 0.3785 0.9256
vn -0.1885 -0.9821 -0.0000
vn -0.1885 0.9821 0.0000
vn 0.0025 -0.3785 0.9256
vn 0.0025 -0.3785 -0.9256
vn -0.0265 0.2181 0.9756
vn -0.0256 0.2181 0.9756
vn 0.3598 -0.2555 0.8974
vn 0.3598 -0.2556 -0.8973
vn 0.3598 -0.2555 -0.8974
vn 0.3598 0.2556 -0.8973
vn 0.3598 0.2555 -0.8974
vn 0.3598 0.2555 0.8974
vn 0.3597 0.2556 0.8974
vn 0.9423 -0.3347 -0.0000
vn -0.2689 -0.9632 -0.0000
vn -0.1530 -0.9882 -0.0000
vn -0.1530 0.9882 0.0000
vn -0.0256 -0.2181 0.9756
vn -0.0256 -0.2182 -0.9756
vn -0.0256 -0.2183 -0.9756
vn -0.0256 0.2183 -0.9756
vn -0.2689 0.9632 0.0000
vn -0.1082 -0.3335 0.9365
vn -0.1082 0.3335 0.9365
vn -0.1101 0.3409 -0.9336
vn -0.1102 -0.3409 -0.9336
vn 0.1175 0.4965 -0.8600
vn -0.3598 -0.2556 0.8974
vn -0.3598 -0.2555 -0.8974
vn -0.3598 0.2556 -0.8974
vn -0.1174 0.4966 -0.8600
vn 0.3598 -0.2556 -0.8974
vn 0.3598 0.2556 -0.8974
vn 0.3598 0.2556 0.8974
vn 0.9449 -0.1637 0.2836
vn -0.9449 0.1637 0.2836
vn -0.9449 0.1638 0.2836
vn 0.9449 0.1637 0.2836
vn -0.9449 -0.1637 0.2836
vn 0.9449 0.3275 0.0000
vn 0.9449 0.1637 -0.2836
vn -0.9449 0.3275 0.0000
vn -0.9449 0.1637 -0.2836
vn 0.9449 -0.1637 -0.2836
vn -0.9449 -0.3275 -0.0000
vn 0.9449 -0.3275 -0.0000
vn -0.9449 -0.1637 -0.2836
vn -0.0000 -0.0000 1.0000
vn 0.9642 -0.2652 0.0000
vn -0.9666 0.2554 -0.0189
vn 0.9999 0.0148 0.0000
vn -0.9642 -0.2652 0.0000
vn 0.9386 0.3450 0.0000
vn -0.9143 0.4050 0.0000
vn 0.9993 -0.0365 0.0000
vn -0.8708 -0.4916 0.0000
vn 0.9093 0.4162 0.0000
vn 0.9833 -0.1818 0.0000
vn -0.8143 -0.5747 0.0816
usemtl Wood
s 1
f 45//1 137//1 46//1
f 47//2 141//2 48//2
f 49//3 139//3 45//3
f 46//4 138//4 50//4
f 50//5 142//5 47//5
f 48//6 140//6 49//6
f 192//1 51//1 189//1
f 193//7 52//7 190//7
f 194//3 54//3 192//3
f 221//8 204//8 220//8
f 216//9 205//9 208//9
f 190//10 56//10 194//10
f 137//1 113//1 114//1
f 141//2 115//2 116//2
f 139//3 117//3 113//3
f 138//4 114//4 118//4
f 142//5 118//5 115//5
f 140//6 116//6 117//6
f 119//1 109//1 107//1
f 120//2 112//2 111//2
f 122//3 110//3 109//3
f 214//11 209//11 210//11
f 219//8 204//8 203//8
f 124//6 111//6 110//6
f 200//12 190//13 194//13
f 197//14 193//15 199//14
f 195//4 191//4 197//4
f 200//3 192//3 198//3
f 199//16 190//16 196//16
f 198//1 189//1 195//1
f 41//1 195//1 39//1
f 44//2 196//2 43//2
f 42//3 198//3 41//3
f 39//4 197//4 40//4
f 40//5 199//5 44//5
f 43//6 200//6 42//6
f 211//17 204//17 212//17
f 201//17 204//17 202//17
f 209//17 205//17 206//17
f 210//17 206//17 207//17
f 219//18 211//18 222//18
f 215//19 206//19 205//19
f 214//20 207//20 218//20
f 224//21 212//21 201//21
f 221//22 201//22 202//22
f 222//21 212//21 223//21
f 218//19 206//19 217//19
f 216//11 209//11 213//11
f 121//23 216//24 213//23
f 108//25 218//26 217//25
f 123//27 218//27 112//27
f 108//28 215//29 107//29
f 121//30 214//31 123//31
f 119//32 215//32 216//32
f 191//33 222//33 223//33
f 193//34 221//34 55//34
f 191//35 224//35 193//35
f 189//36 219//36 222//36
f 53//37 219//37 51//37
f 53//38 221//39 220//39
f 45//1 139//1 137//1
f 47//2 142//2 141//2
f 49//3 140//3 139//3
f 46//4 137//4 138//4
f 50//5 138//5 142//5
f 48//6 141//6 140//6
f 192//1 54//1 51//1
f 193//7 55//7 52//7
f 194//3 56//3 54//3
f 221//8 202//8 204//8
f 216//9 215//9 205//9
f 190//10 52//10 56//10
f 137//1 139//1 113//1
f 141//2 142//2 115//2
f 139//3 140//3 117//3
f 138//4 137//4 114//4
f 142//5 138//5 118//5
f 140//6 141//6 116//6
f 119//1 122//1 109//1
f 120//2 123//2 112//2
f 122//3 124//3 110//3
f 214//11 213//11 209//11
f 219//8 220//8 204//8
f 124//6 120//6 111//6
f 200//12 196//12 190//13
f 197//14 191//15 193//15
f 195//4 189//4 191//4
f 200//3 194//3 192//3
f 199//16 193//16 190//16
f 198//1 192//1 189//1
f 41//1 198//1 195//1
f 44//2 199//2 196//2
f 42//3 200//3 198//3
f 39//4 195//4 197//4
f 40//5 197//5 199//5
f 43//6 196//6 200//6
f 211//17 203//17 204//17
f 201//17 212//17 204//17
f 209//17 208//17 205//17
f 210//17 209//17 206//17
f 219//18 203//18 211//18
f 215//19 217//19 206//19
f 214//20 210//20 207//20
f 224//21 223//21 212//21
f 221//22 224//22 201//22
f 222//21 211//21 212//21
f 218//19 207//19 206//19
f 216//11 208//11 209//11
f 121//23 119//24 216//24
f 108//25 112//26 218//26
f 123//27 214//27 218//27
f 108//28 217//28 215//29
f 121//30 213//30 214//31
f 119//32 107//32 215//32
f 191//33 189//33 222//33
f 193//34 224//40 221//34
f 191//35 223//41 224//35
f 189//36 51//36 219//36
f 53//37 220//37 219//37
f 53//38 55//38 221//39
usemtl Metal
f 2//42 12//42 8//43
f 11//44 18//44 12//44
f 5//45 10//45 11//45
f 1//46 9//46 3//46
f 6//47 11//47 12//47
f 3//48 10//48 4//48
f 2//49 7//49 1//50
f 14//51 24//51 20//51
f 9//44 16//44 10//44
f 7//44 14//44 13//44
f 12//44 14//44 8//44
f 11//44 16//44 17//44
f 7//44 15//44 9//44
f 23//52 30//52 24//52
f 16//53 23//53 17//53
f 15//54 19//54 21//54
f 17//55 24//55 18//55
f 16//56 21//56 22//56
f 14//57 19//57 13//57
f 28//58 35//58 29//58
f 21//59 28//59 22//59
f 19//60 26//60 25//60
f 24//61 26//61 20//62
f 23//63 28//64 29//65
f 19//66 27//66 21//66
f 31//67 34//67 33//67
f 25//68 33//68 27//68
f 29//69 36//69 30//69
f 28//70 33//71 37//70
f 26//72 31//73 25//72
f 26//74 36//74 38//74
f 34//75 36//75 35//75
f 37//76 33//76 34//76
f 35//77 37//77 34//77
f 38//78 36//78 32//78
f 31//79 38//79 32//79
f 5//80 44//80 43//80
f 4//80 41//80 3//80
f 2//80 39//80 40//80
f 6//80 40//80 44//80
f 5//80 42//80 4//80
f 3//80 39//80 1//80
f 70//81 80//81 74//82
f 86//80 79//80 80//80
f 73//83 78//83 72//83
f 77//84 69//84 71//84
f 74//85 79//85 73//85
f 78//86 71//86 72//86
f 75//87 70//87 69//88
f 82//89 92//89 86//89
f 84//80 77//80 78//80
f 75//80 82//80 76//80
f 82//80 80//80 76//80
f 79//80 84//80 78//80
f 83//80 75//80 77//80
f 98//90 91//90 92//90
f 91//91 84//91 85//91
f 83//92 87//92 81//92
f 92//93 85//93 86//93
f 84//94 89//94 83//94
f 87//95 82//95 81//95
f 103//96 96//97 97//97
f 96//98 89//98 90//98
f 87//99 94//99 88//100
f 94//101 92//101 88//102
f 91//103 96//104 90//103
f 95//105 87//105 89//105
f 99//106 102//106 100//106
f 101//107 93//107 95//107
f 104//108 97//108 98//108
f 96//109 101//109 95//109
f 99//110 94//111 93//111
f 94//112 104//112 98//112
f 102//113 104//113 100//113
f 105//114 102//114 101//114
f 103//115 102//115 105//115
f 106//116 100//116 104//116
f 99//117 100//117 106//117
f 73//44 112//44 74//44
f 109//44 72//44 71//44
f 70//44 107//44 69//44
f 74//44 108//44 70//44
f 110//44 73//44 72//44
f 107//44 71//44 69//44
f 2//42 6//118 12//42
f 11//44 17//44 18//44
f 5//45 4//45 10//45
f 1//46 7//46 9//46
f 6//47 5//47 11//47
f 3//48 9//48 10//48
f 2//49 8//49 7//49
f 14//51 18//51 24//51
f 9//44 15//44 16//44
f 7//44 8//44 14//44
f 12//44 18//44 14//44
f 11//44 10//44 16//44
f 7//44 13//44 15//44
f 23//52 29//52 30//52
f 16//53 22//53 23//53
f 15//54 13//54 19//54
f 17//55 23//55 24//55
f 16//56 15//56 21//56
f 14//57 20//57 19//57
f 28//58 37//58 35//58
f 21//59 27//119 28//59
f 19//60 20//120 26//60
f 24//61 30//121 26//61
f 23//63 22//63 28//64
f 19//66 25//66 27//66
f 31//67 32//67 34//67
f 25//68 31//68 33//68
f 29//69 35//69 36//69
f 28//70 27//70 33//71
f 26//72 38//73 31//73
f 26//74 30//74 36//74
f 34//75 32//75 36//75
f 5//80 6//80 44//80
f 4//80 42//80 41//80
f 2//80 1//80 39//80
f 6//80 2//80 40//80
f 5//80 43//80 42//80
f 3//80 41//80 39//80
f 70//81 76//122 80//81
f 86//80 85//80 79//80
f 73//83 79//83 78//83
f 77//84 75//84 69//84
f 74//85 80//85 79//85
f 78//86 77//86 71//86
f 75//87 76//87 70//87
f 82//89 88//89 92//89
f 84//80 83//80 77//80
f 75//80 81//80 82//80
f 82//80 86//80 80//80
f 79//80 85//80 84//80
f 83//80 81//80 75//80
f 98//90 97//90 91//90
f 91//91 90//91 84//91
f 83//92 89//92 87//92
f 92//93 91//93 85//93
f 84//94 90//94 89//94
f 87//95 88//95 82//95
f 103//96 105//97 96//97
f 96//98 95//98 89//98
f 87//99 93//123 94//99
f 94//101 98//124 92//101
f 91//103 97//125 96//104
f 95//105 93//105 87//105
f 99//106 101//106 102//106
f 101//107 99//107 93//107
f 104//108 103//108 97//108
f 96//109 105//109 101//109
f 99//110 106//110 94//111
f 94//112 106//112 104//112
f 102//113 103//113 104//113
f 73//44 111//44 112//44
f 109//44 110//44 72//44
f 70//44 108//44 107//44
f 74//44 112//44 108//44
f 110//44 111//44 73//44
f 107//44 109//44 71//44
usemtl Main
f 54//126 61//126 57//126
f 49//127 63//127 48//128
f 56//129 67//129 61//129
f 45//130 62//130 49//130
f 52//131 59//131 67//131
f 55//132 68//132 59//132
f 67//6 62//6 61//6
f 68//5 60//5 59//5
f 66//4 64//4 68//4
f 61//3 58//3 57//3
f 59//2 63//2 67//2
f 57//1 65//1 66//1
f 48//133 60//133 47//133
f 47//134 64//134 50//134
f 51//135 68//135 53//135
f 46//136 58//136 45//136
f 51//137 57//137 66//137
f 46//138 64//138 65//138
f 122//130 129//130 124//130
f 131//129 117//129 116//129
f 124//127 135//127 120//127
f 130//126 113//126 117//126
f 120//133 127//133 123//133
f 123//134 136//134 121//134
f 130//6 135//6 129//6
f 128//5 136//5 127//5
f 132//4 134//4 136//4
f 126//3 129//3 125//3
f 131//2 127//2 135//2
f 133//1 125//1 134//1
f 128//131 116//131 115//131
f 132//132 115//132 118//132
f 136//138 119//138 121//138
f 126//137 114//137 113//137
f 134//136 122//136 119//136
f 114//135 132//135 118//135
f 148//139 160//139 161//139
f 145//139 161//139 159//139
f 148//139 149//139 146//139
f 183//139 150//139 148//139
f 163//17 156//17 164//17
f 164//17 151//17 162//17
f 156//17 155//17 157//17
f 184//17 187//17 156//17
f 154//2 147//2 144//2
f 158//140 148//140 150//140
f 184//141 186//141 183//141
f 153//2 143//2 147//2
f 181//142 144//142 179//142
f 162//80 145//80 159//80
f 156//143 149//143 148//143
f 157//44 146//44 149//44
f 166//80 159//80 165//80
f 155//144 160//144 146//144
f 166//17 164//17 162//17
f 170//17 163//17 164//17
f 165//139 161//139 168//139
f 168//139 160//139 167//139
f 168//139 173//139 174//139
f 171//139 168//139 174//139
f 175//17 170//17 176//17
f 172//17 170//17 166//17
f 172//145 165//145 171//145
f 163//146 167//146 160//146
f 178//147 171//147 177//147
f 178//17 176//17 172//17
f 182//17 175//17 176//17
f 177//139 174//139 180//139
f 180//139 173//139 179//139
f 169//148 173//148 167//148
f 180//139 144//139 147//139
f 143//139 180//139 147//139
f 154//17 182//17 153//17
f 152//17 182//17 178//17
f 152//80 177//80 143//80
f 175//149 179//149 173//149
f 151//80 188//80 145//80
f 185//80 150//80 186//80
f 187//150 183//150 188//150
f 54//126 56//126 61//126
f 49//127 62//127 63//127
f 56//129 52//129 67//129
f 45//130 58//130 62//130
f 52//131 55//131 59//131
f 55//132 53//132 68//132
f 67//6 63//6 62//6
f 68//5 64//5 60//5
f 66//4 65//4 64//4
f 61//3 62//3 58//3
f 59//2 60//2 63//2
f 57//1 58//1 65//1
f 48//133 63//133 60//133
f 47//134 60//134 64//134
f 51//135 66//135 68//135
f 46//136 65//136 58//136
f 51//137 54//137 57//137
f 46//138 50//138 64//138
f 122//130 125//130 129//130
f 131//129 130//129 117//129
f 124//127 129//127 135//127
f 130//126 126//126 113//126
f 120//133 135//133 127//133
f 123//134 127//134 136//134
f 130//6 131//6 135//6
f 128//5 132//5 136//5
f 132//4 133//4 134//4
f 126//3 130//3 129//3
f 131//2 128//2 127//2
f 133//1 126//1 125//1
f 128//131 131//131 116//131
f 132//132 128//132 115//132
f 136//138 134//138 119//138
f 126//137 133//137 114//137
f 134//136 125//136 122//136
f 114//135 133//135 132//135
f 148//139 146//139 160//139
f 145//139 148//139 161//139
f 148//139 145//139 188//139
f 183//139 186//139 150//139
f 148//139 188//139 183//139
f 163//17 155//17 156//17
f 164//17 156//17 151//17
f 187//17 151//17 156//17
f 156//17 158//17 184//17
f 158//17 185//17 184//17
f 154//2 153//2 147//2
f 158//140 156//140 148//140
f 184//141 185//141 186//141
f 153//2 152//2 143//2
f 181//142 154//142 144//142
f 162//80 151//80 145//80
f 156//143 157//143 149//143
f 157//44 155//44 146//44
f 166//80 162//80 159//80
f 155//144 163//144 160//144
f 166//17 170//17 164//17
f 170//17 169//17 163//17
f 165//139 159//139 161//139
f 168//139 161//139 160//139
f 168//139 167//139 173//139
f 171//139 165//139 168//139
f 175//17 169//17 170//17
f 172//17 176//17 170//17
f 172//145 166//145 165//145
f 163//146 169//146 167//146
f 178//147 172//147 171//147
f 178//17 182//17 176//17
f 182//17 181//17 175//17
f 177//139 171//139 174//139
f 180//139 174//139 173//139
f 169//148 175//148 173//148
f 180//139 179//139 144//139
f 143//139 177//139 180//139
f 154//17 181//17 182//17
f 152//17 153//17 182//17
f 152//80 178//80 177//80
f 175//149 181//149 179//149
f 151//80 187//80 188//80
f 185//80 158//80 150//80
f 187//150 184//150 183//150
