# Blender v3.0.1 OBJ File: 'BlenderPrototype.blend'
# www.blender.org
mtllib Floor_BricksSeparate.mtl
v -0.209891 0.231895 -0.354945
v -0.228891 0.221135 -0.354945
v -0.209891 0.221135 -0.335945
v -0.209891 0.221135 -0.725523
v -0.228891 0.221135 -0.706523
v -0.209891 0.231895 -0.706523
v 0.479415 0.221135 -0.335945
v 0.498415 0.221135 -0.354945
v 0.479415 0.231895 -0.354945
v 0.498415 0.221135 -0.706523
v 0.479415 0.221135 -0.725523
v 0.479415 0.231895 -0.706523
v -0.433908 0.162313 -0.197241
v -0.437945 0.151553 -0.215807
v -0.452475 0.151553 -0.193204
v -0.081137 0.151553 -0.273942
v -0.103740 0.151553 -0.288472
v -0.099703 0.162313 -0.269906
v -0.310496 0.151553 0.459792
v -0.287893 0.151553 0.474322
v -0.291930 0.162313 0.455756
v 0.046312 0.151553 0.401657
v 0.060841 0.151553 0.379054
v 0.042275 0.162313 0.383091
v -0.336047 0.151553 0.342278
v -0.317481 0.162313 0.338241
v 0.035291 0.151553 0.261540
v 0.016724 0.162313 0.265577
v -0.332165 0.162313 0.270703
v 0.017639 0.151553 0.194647
v -0.350731 0.151553 0.274740
v -0.020702 0.162313 0.202983
v -0.341863 0.162313 0.226100
v 0.010908 0.151553 0.149398
v -0.360429 0.151553 0.230137
v -0.007658 0.162313 0.153435
v 0.113636 0.221135 -0.338773
v 0.113636 0.231895 -0.363565
v 0.151346 0.221135 -0.725523
v 0.151346 0.231895 -0.706523
v 0.173243 0.221135 -0.335945
v 0.210954 0.231895 -0.690361
v 0.173243 0.231895 -0.354945
v 0.210954 0.221135 -0.725345
v -0.411157 0.162313 -0.092601
v -0.415584 0.162313 -0.112963
v -0.420011 0.162313 -0.133325
v -0.058386 0.151553 -0.169303
v -0.062640 0.151553 -0.189702
v -0.067240 0.151553 -0.210026
v -0.438578 0.151553 -0.129288
v -0.434150 0.151553 -0.108926
v -0.429723 0.151553 -0.088564
v -0.085806 0.162313 -0.205989
v -0.092785 0.162313 -0.183148
v -0.076952 0.162313 -0.165266
v -0.209891 -0.018433 -0.354945
v -0.228891 -0.007673 -0.354945
v -0.209891 -0.007673 -0.335945
v -0.209891 -0.007673 -0.725523
v -0.228891 -0.007673 -0.706523
v -0.209891 -0.018433 -0.706523
v 0.479415 -0.007673 -0.335945
v 0.498415 -0.007673 -0.354945
v 0.479415 -0.018433 -0.354945
v 0.498415 -0.007673 -0.706523
v 0.479415 -0.007673 -0.725523
v 0.479415 -0.018433 -0.706523
v -0.433908 -0.024190 -0.197241
v -0.437945 -0.013430 -0.215807
v -0.452475 -0.013430 -0.193204
v -0.081137 -0.013430 -0.273942
v -0.103740 -0.013430 -0.288472
v -0.099703 -0.024190 -0.269906
v -0.310496 -0.013430 0.459792
v -0.287893 -0.013430 0.474322
v -0.291930 -0.024190 0.455756
v 0.046312 -0.013430 0.401657
v 0.060841 -0.013430 0.379054
v 0.042275 -0.024190 0.383091
v -0.336047 -0.013430 0.342278
v -0.317481 -0.024190 0.338241
v 0.035290 -0.013430 0.261540
v 0.016724 -0.024190 0.265577
v -0.332165 -0.024190 0.270703
v 0.017639 -0.013430 0.194647
v -0.350731 -0.013430 0.274740
v -0.020702 -0.024190 0.202983
v -0.341863 -0.024190 0.226100
v 0.010908 -0.013430 0.149398
v -0.360429 -0.013430 0.230137
v -0.007658 -0.024190 0.153435
v 0.113636 -0.007673 -0.338774
v 0.113635 -0.018433 -0.363565
v 0.151346 -0.007673 -0.725523
v 0.151346 -0.018433 -0.706523
v 0.173243 -0.007673 -0.335945
v 0.210953 -0.018433 -0.690361
v 0.173243 -0.018433 -0.354945
v 0.210953 -0.007673 -0.725345
v -0.411157 -0.024190 -0.092601
v -0.415584 -0.024190 -0.112963
v -0.420011 -0.024190 -0.133325
v -0.058386 -0.013430 -0.169303
v -0.062640 -0.013430 -0.189702
v -0.067240 -0.013430 -0.210026
v -0.438578 -0.013430 -0.129288
v -0.434150 -0.013430 -0.108926
v -0.429723 -0.013430 -0.088564
v -0.085806 -0.024190 -0.205989
v -0.092785 -0.024190 -0.183148
v -0.076952 -0.024190 -0.165266
v 0.164922 0.001397 0.145014
v 0.429882 0.001397 0.145014
v 0.164922 0.001397 0.442719
v 0.429882 0.001397 0.442719
v 0.137140 0.006273 0.263424
v 0.457663 0.006273 0.263424
v 0.214910 0.106955 0.199277
v 0.197611 0.109991 0.273008
v 0.214910 0.106955 0.384650
v 0.379893 0.106955 0.199277
v 0.397192 0.109991 0.273008
v 0.379893 0.106955 0.384650
vn 0.0012 0.0000 -1.0000
vn 0.0015 0.0000 -1.0000
vn 1.0000 -0.0000 0.0000
vn 0.0000 0.9996 0.0272
vn 0.0000 0.0000 -1.0000
vn -0.9772 -0.0000 0.2125
vn 0.2125 -0.0000 0.9772
vn -0.4420 0.7805 0.4420
vn -0.4420 0.7805 -0.4420
vn 0.4420 0.7805 0.4420
vn 0.4420 0.7805 -0.4420
vn -0.5258 0.7805 -0.3380
vn 0.3380 0.7805 -0.5259
vn -0.3380 0.7805 0.5259
vn 0.5259 0.7805 0.3380
vn -0.7071 -0.0000 0.7071
vn 0.0000 0.8702 0.4928
vn -0.7071 0.0000 -0.7071
vn 0.0000 0.8702 -0.4928
vn -0.4928 0.8702 0.0000
vn 0.4928 0.8702 0.0000
vn -0.2125 0.0000 -0.9772
vn -0.4815 0.8701 0.1047
vn -0.4815 0.8702 0.1047
vn 0.8412 -0.0000 0.5407
vn 0.4815 0.8701 -0.1047
vn 0.4815 0.8702 -0.1047
vn -0.1047 0.8702 -0.4815
vn 0.1047 0.8702 0.4815
vn -0.5407 -0.0000 0.8412
vn 0.9772 -0.0000 -0.2125
vn 0.3240 0.9360 -0.1378
vn 0.9669 -0.0000 -0.2551
vn 0.9669 -0.0000 -0.2552
vn 0.3581 0.9334 0.0239
vn 0.3582 0.9334 0.0238
vn 0.0507 0.9277 -0.3698
vn 0.0078 0.8975 0.4410
vn 0.0087 -0.0000 1.0000
vn -0.0007 0.0000 -1.0000
vn 0.0000 1.0000 0.0000
vn -0.0474 -0.0000 0.9989
vn -0.0113 0.9288 -0.3703
vn -0.0113 0.9289 -0.3703
vn -0.0423 0.8967 0.4407
vn -0.0423 0.8967 0.4406
vn 0.9753 0.0000 -0.2208
vn 0.9763 0.0000 -0.2166
vn 0.9891 0.0000 -0.1471
vn 0.3619 0.9127 -0.1899
vn 0.4081 0.9127 0.0225
vn 0.9781 0.0000 -0.2083
vn 0.9789 0.0000 -0.2041
vn -1.0000 -0.0000 0.0000
vn 0.7071 -0.0000 0.7071
vn 0.5407 0.0000 -0.8412
vn -0.8412 -0.0000 -0.5407
vn 0.0000 -0.0000 1.0000
vn -0.4420 -0.7805 0.4420
vn -0.4420 -0.7805 -0.4420
vn 0.4420 -0.7805 0.4420
vn 0.4420 -0.7805 -0.4420
vn -0.5258 -0.7805 -0.3380
vn 0.3380 -0.7805 -0.5259
vn -0.3380 -0.7805 0.5259
vn 0.5259 -0.7805 0.3380
vn 0.0000 -0.8702 0.4928
vn 0.0000 -0.8702 -0.4928
vn -0.4928 -0.8702 -0.0000
vn 0.4928 -0.8702 -0.0000
vn -0.4815 -0.8702 0.1047
vn -0.4815 -0.8701 0.1047
vn 0.4815 -0.8702 -0.1047
vn 0.4815 -0.8701 -0.1047
vn -0.1047 -0.8702 -0.4815
vn 0.1047 -0.8702 0.4815
vn 0.3240 -0.9360 -0.1378
vn 0.3581 -0.9334 0.0239
vn 0.3582 -0.9334 0.0238
vn 0.0507 -0.9277 -0.3698
vn 0.0078 -0.8975 0.4410
vn -0.0000 -1.0000 -0.0000
vn -0.0113 -0.9288 -0.3703
vn -0.0113 -0.9289 -0.3703
vn -0.0423 -0.8967 0.4407
vn -0.0423 -0.8967 0.4406
vn 0.3619 -0.9127 -0.1899
vn 0.4081 -0.9127 0.0225
vn 0.7071 0.0000 -0.7071
vn 0.0000 0.9992 -0.0411
vn 0.0000 -0.9996 -0.0272
vn 0.0000 -0.9992 0.0411
vn -0.8345 0.5066 -0.2167
vn -0.8604 0.4881 0.1466
vn 0.0000 0.4820 0.8762
vn 0.8345 0.5066 -0.2167
vn 0.0000 0.4572 -0.8894
vn 0.8604 0.4881 0.1466
usemtl Grey_Floor.066
s 1
f 100//1 39//2 44//1
f 10//3 64//3 66//3
f 123//4 121//4 124//4
f 95//2 4//5 39//2
f 81//6 19//6 25//6
f 22//7 76//7 78//7
f 1//8 2//8 3//8
f 4//9 5//9 6//9
f 7//10 8//10 9//10
f 10//11 11//11 12//11
f 13//12 14//12 15//12
f 16//13 17//13 18//13
f 19//14 20//14 21//14
f 22//15 23//15 24//15
f 58//16 3//16 2//16
f 7//17 43//17 41//17
f 61//18 4//18 60//18
f 4//19 40//19 39//19
f 6//20 2//20 1//20
f 9//21 10//21 12//21
f 73//22 14//22 17//22
f 19//23 26//24 25//24
f 78//25 23//25 22//25
f 16//26 54//27 50//27
f 13//28 17//28 14//28
f 24//29 20//29 22//29
f 23//27 28//27 24//27
f 31//24 26//24 29//24
f 76//30 19//30 75//30
f 79//31 27//31 23//31
f 87//6 25//6 31//6
f 35//24 29//24 33//24
f 30//32 28//32 27//32
f 91//6 31//6 35//6
f 53//24 33//24 45//24
f 83//33 30//33 27//34
f 30//35 36//36 32//35
f 109//6 35//6 53//6
f 44//37 40//37 42//37
f 37//38 1//38 3//38
f 59//39 37//39 3//39
f 67//40 44//1 11//40
f 6//41 1//41 38//41
f 93//42 41//42 37//42
f 44//43 12//43 11//44
f 37//45 43//46 38//45
f 105//47 50//48 49//47
f 86//49 34//49 30//49
f 71//6 51//6 15//6
f 107//6 52//6 51//6
f 55//41 54//41 18//41
f 15//24 47//24 13//24
f 52//24 47//24 51//24
f 52//24 45//24 46//24
f 34//27 56//27 36//27
f 49//50 56//50 48//50
f 49//51 54//51 55//51
f 108//6 53//6 52//6
f 90//31 48//52 34//31
f 104//52 49//53 48//52
f 61//54 2//54 5//54
f 64//55 7//55 63//55
f 73//56 16//56 72//56
f 70//57 15//57 14//57
f 97//58 7//58 41//58
f 106//48 16//31 50//48
f 57//59 59//59 58//59
f 60//60 62//60 61//60
f 63//61 65//61 64//61
f 66//62 68//62 67//62
f 69//63 71//63 70//63
f 72//64 74//64 73//64
f 75//65 77//65 76//65
f 78//66 80//66 79//66
f 99//67 63//67 97//67
f 96//68 60//68 95//68
f 58//69 62//69 57//69
f 66//70 65//70 68//70
f 82//71 75//72 81//71
f 110//73 72//74 106//73
f 69//75 73//75 74//75
f 80//76 76//76 77//76
f 79//73 84//73 83//73
f 87//71 82//71 81//71
f 91//71 85//71 87//71
f 84//77 86//77 83//77
f 109//71 89//71 91//71
f 86//78 92//79 90//78
f 100//80 96//80 95//80
f 57//81 93//81 59//81
f 99//82 94//82 98//82
f 68//83 100//83 67//84
f 93//85 99//86 97//85
f 82//82 85//82 88//82
f 71//71 103//71 107//71
f 103//71 108//71 107//71
f 108//71 101//71 109//71
f 90//73 112//73 104//73
f 112//87 105//87 104//87
f 105//88 110//88 106//88
f 66//89 11//89 10//89
f 122//90 120//90 123//90
f 115//91 118//91 116//91
f 118//92 113//92 114//92
f 119//93 117//93 120//93
f 121//94 117//94 115//94
f 124//95 115//95 116//95
f 122//96 118//96 114//96
f 122//97 113//97 119//97
f 124//98 118//98 123//98
f 100//1 95//2 39//2
f 10//3 8//3 64//3
f 123//4 120//4 121//4
f 95//2 60//5 4//5
f 81//6 75//6 19//6
f 22//7 20//7 76//7
f 58//16 59//16 3//16
f 7//17 9//17 43//17
f 61//18 5//18 4//18
f 4//19 6//19 40//19
f 6//20 5//20 2//20
f 9//21 8//21 10//21
f 73//22 70//22 14//22
f 19//23 21//23 26//24
f 78//25 79//25 23//25
f 16//26 18//26 54//27
f 13//28 18//28 17//28
f 24//29 21//29 20//29
f 23//27 27//27 28//27
f 31//24 25//24 26//24
f 76//30 20//30 19//30
f 79//31 83//31 27//31
f 87//6 81//6 25//6
f 35//24 31//24 29//24
f 30//32 32//32 28//32
f 91//6 87//6 31//6
f 53//24 35//24 33//24
f 83//33 86//33 30//33
f 30//35 34//35 36//36
f 109//6 91//6 35//6
f 44//37 39//37 40//37
f 37//38 38//38 1//38
f 59//39 93//39 37//39
f 67//40 100//1 44//1
f 38//41 43//41 42//41
f 43//41 9//41 42//41
f 9//41 12//41 42//41
f 42//41 40//41 38//41
f 40//41 6//41 38//41
f 93//42 97//42 41//42
f 44//43 42//43 12//43
f 37//45 41//46 43//46
f 105//47 106//48 50//48
f 86//49 90//49 34//49
f 71//6 107//6 51//6
f 107//6 108//6 52//6
f 46//41 45//41 55//41
f 45//41 33//41 56//41
f 55//41 45//41 56//41
f 29//41 26//41 32//41
f 26//41 21//41 24//41
f 33//41 29//41 32//41
f 18//41 13//41 55//41
f 13//41 47//41 55//41
f 47//41 46//41 55//41
f 26//41 24//41 28//41
f 32//41 26//41 28//41
f 32//41 36//41 33//41
f 36//41 56//41 33//41
f 15//24 51//24 47//24
f 52//24 46//24 47//24
f 52//24 53//24 45//24
f 34//27 48//27 56//27
f 49//50 55//50 56//50
f 49//51 50//51 54//51
f 108//6 109//6 53//6
f 90//31 104//52 48//52
f 104//52 105//53 49//53
f 61//54 58//54 2//54
f 64//55 8//55 7//55
f 73//56 17//56 16//56
f 70//57 71//57 15//57
f 97//58 63//58 7//58
f 106//48 72//31 16//31
f 99//67 65//67 63//67
f 96//68 62//68 60//68
f 58//69 61//69 62//69
f 66//70 64//70 65//70
f 82//71 77//72 75//72
f 110//73 74//74 72//74
f 69//75 70//75 73//75
f 80//76 78//76 76//76
f 79//73 80//73 84//73
f 87//71 85//71 82//71
f 91//71 89//71 85//71
f 84//77 88//77 86//77
f 109//71 101//71 89//71
f 86//78 88//78 92//79
f 100//80 98//80 96//80
f 57//81 94//81 93//81
f 94//82 57//82 62//82
f 62//82 96//82 94//82
f 96//82 98//82 94//82
f 98//82 68//82 65//82
f 65//82 99//82 98//82
f 68//83 98//83 100//83
f 93//85 94//86 99//86
f 103//82 69//82 111//82
f 69//82 74//82 111//82
f 74//82 110//82 111//82
f 111//82 112//82 101//82
f 112//82 92//82 89//82
f 88//82 84//82 82//82
f 84//82 80//82 77//82
f 112//82 89//82 101//82
f 92//82 88//82 89//82
f 101//82 102//82 111//82
f 102//82 103//82 111//82
f 84//82 77//82 82//82
f 85//82 89//82 88//82
f 71//71 69//71 103//71
f 103//71 102//71 108//71
f 108//71 102//71 101//71
f 90//73 92//73 112//73
f 112//87 111//87 105//87
f 105//88 111//88 110//88
f 66//89 67//89 11//89
f 122//90 119//90 120//90
f 115//91 117//91 118//91
f 118//92 117//92 113//92
f 119//93 113//93 117//93
f 121//94 120//94 117//94
f 124//95 121//95 115//95
f 122//96 123//96 118//96
f 122//97 114//97 113//97
f 124//98 116//98 118//98
