# Blender v3.0.1 OBJ File: 'BlenderPrototype.blend'
# www.blender.org
mtllib Torch.mtl
v 0.012359 -0.160661 0.021406
v -0.038064 0.270785 0.000000
v 0.024718 -0.160661 -0.000000
v -0.019032 0.270785 -0.032965
v 0.012359 -0.160661 -0.021406
v 0.019032 0.270785 -0.032965
v -0.012359 -0.160661 0.021406
v 0.038064 0.270785 0.000000
v -0.012359 -0.160661 -0.021406
v 0.019032 0.270785 0.032965
v -0.024718 -0.160661 -0.000000
v -0.019032 0.270785 0.032965
v -0.031604 -0.270785 -0.000000
v -0.038064 -0.230985 -0.000000
v -0.015802 -0.270785 -0.027370
v -0.019032 -0.230985 -0.032965
v 0.015802 -0.270785 -0.027370
v 0.019032 -0.230985 -0.032965
v 0.031604 -0.270785 -0.000000
v 0.038064 -0.230985 -0.000000
v 0.015802 -0.270785 0.027370
v 0.019032 -0.230985 0.032965
v -0.015802 -0.270785 0.027370
v -0.019032 -0.230985 0.032965
v 0.009865 -0.118742 0.017086
v 0.019729 -0.118742 -0.000000
v 0.009865 -0.118742 -0.017086
v -0.009865 -0.118742 -0.017086
v -0.019729 -0.118742 -0.000000
v -0.009865 -0.118742 0.017086
v -0.039810 0.292543 -0.068954
v -0.079621 0.292543 0.000000
v 0.039810 0.292543 -0.068954
v 0.079621 0.292543 0.000000
v 0.039810 0.292543 0.068954
v -0.039810 0.292543 0.068954
v -0.039810 0.319740 -0.068954
v -0.079621 0.319740 0.000000
v 0.039810 0.319740 -0.068954
v 0.079621 0.319740 0.000000
v 0.039810 0.319740 0.068954
v -0.039810 0.319740 0.068954
v -0.051990 0.319740 -0.090050
v -0.103981 0.319740 0.000000
v 0.051990 0.319740 -0.090050
v 0.103981 0.319740 0.000000
v 0.051990 0.319740 0.090050
v -0.051990 0.319740 0.090050
v -0.069569 0.393172 -0.120496
v -0.139137 0.393172 0.000000
v 0.069569 0.393172 -0.120496
v 0.139137 0.393172 0.000000
v 0.069569 0.393172 0.120496
v -0.069569 0.393172 0.120496
v -0.052548 0.393172 -0.091015
v -0.105095 0.393172 0.000000
v 0.052548 0.393172 -0.091015
v 0.105095 0.393172 0.000000
v 0.052547 0.393172 0.091015
v -0.052547 0.393172 0.091015
v -0.044692 0.364456 -0.077409
v -0.089384 0.364456 0.000000
v 0.044692 0.364456 -0.077409
v 0.089384 0.364456 0.000000
v 0.044692 0.364456 0.077409
v -0.044692 0.364456 0.077409
v -0.013625 0.384689 0.114820
v 0.020990 0.384689 0.114548
v -0.015007 0.384689 0.097985
v 0.019608 0.384689 0.097712
v -0.013625 0.572671 0.114820
v 0.020990 0.572671 0.114548
v -0.015007 0.572671 0.097985
v 0.019608 0.572671 0.097712
v 0.092625 0.384689 0.069209
v 0.109696 0.384689 0.039096
v 0.077354 0.384689 0.061989
v 0.094425 0.384689 0.031875
v 0.092625 0.572671 0.069209
v 0.109696 0.572671 0.039096
v 0.077354 0.572671 0.061989
v 0.094425 0.572671 0.031875
v 0.106249 0.384689 -0.045611
v 0.088706 0.384689 -0.075452
v 0.092361 0.384689 -0.035996
v 0.074818 0.384689 -0.065837
v 0.106249 0.572671 -0.045611
v 0.088706 0.572671 -0.075452
v 0.092361 0.572671 -0.035996
v 0.074818 0.572671 -0.065837
v 0.013624 0.384689 -0.114820
v -0.020990 0.384689 -0.114548
v 0.015007 0.384689 -0.097985
v -0.019608 0.384689 -0.097712
v 0.013624 0.572671 -0.114820
v -0.020990 0.572671 -0.114548
v 0.015007 0.572671 -0.097985
v -0.019608 0.572671 -0.097712
v -0.092625 0.384689 -0.069209
v -0.109696 0.384689 -0.039096
v -0.077354 0.384689 -0.061989
v -0.094425 0.384689 -0.031875
v -0.092625 0.572671 -0.069209
v -0.109696 0.572671 -0.039096
v -0.077354 0.572671 -0.061989
v -0.094425 0.572671 -0.031875
v -0.106249 0.384689 0.045611
v -0.088706 0.384689 0.075452
v -0.092361 0.384689 0.035996
v -0.074818 0.384689 0.065837
v -0.106249 0.572671 0.045611
v -0.088706 0.572671 0.075452
v -0.092361 0.572671 0.035996
v -0.074818 0.572671 0.065837
v -0.018835 0.438250 0.122975
v -0.017099 0.438250 0.144104
v 0.024608 0.438250 0.122633
v 0.026344 0.438250 0.143762
v -0.115917 0.438250 0.045176
v -0.133347 0.438250 0.057244
v -0.093899 0.438250 0.082628
v -0.111330 0.438250 0.094696
v -0.097082 0.438250 -0.077799
v -0.116248 0.438250 -0.086860
v -0.118508 0.438250 -0.040005
v -0.137674 0.438250 -0.049067
v 0.018835 0.438250 -0.122975
v 0.017099 0.438250 -0.144104
v -0.024609 0.438250 -0.122633
v -0.026344 0.438250 -0.143762
v 0.097082 0.438250 0.077799
v 0.116248 0.438250 0.086861
v 0.118508 0.438250 0.040005
v 0.137674 0.438250 0.049067
v 0.115917 0.438250 -0.045176
v 0.133347 0.438250 -0.057244
v 0.093899 0.438250 -0.082628
v 0.111330 0.438250 -0.094696
v -0.033150 0.166374 0.000000
v -0.016575 0.166374 0.028709
v 0.016575 0.166374 0.028709
v 0.033150 0.166374 0.000000
v 0.016575 0.166374 -0.028709
v -0.016575 0.166374 -0.028709
v 0.015894 0.137456 0.027530
v 0.031789 0.137456 0.000000
v 0.015894 0.137456 -0.027530
v -0.015894 0.137456 -0.027530
v -0.031789 0.137456 0.000000
v -0.015894 0.137456 0.027530
v -0.017183 -0.158816 -0.029761
v 0.017183 -0.158816 0.029761
v 0.034365 -0.158816 -0.000000
v 0.017183 -0.158816 -0.029761
v -0.034365 -0.158816 -0.000000
v -0.017183 -0.158816 0.029761
v -0.038902 0.140314 0.000000
v -0.040567 0.163516 0.000000
v -0.019451 0.140314 0.033690
v -0.020284 0.163516 0.035132
v -0.020284 0.163516 -0.035132
v 0.020284 0.163516 -0.035132
v 0.020284 0.163516 0.035132
v 0.040567 0.163516 0.000000
v 0.019451 0.140314 0.033690
v 0.038902 0.140314 0.000000
v 0.019451 0.140314 -0.033690
v -0.019451 0.140314 -0.033690
v 0.013715 -0.120587 0.023755
v 0.027430 -0.120587 -0.000000
v 0.013715 -0.120587 -0.023755
v -0.013715 -0.120587 -0.023755
v -0.027430 -0.120587 -0.000000
v -0.013715 -0.120588 0.023755
v -0.017183 -0.158816 -0.288172
v 0.017183 -0.158816 -0.288172
v -0.013715 -0.120587 -0.282166
v 0.013715 -0.120587 -0.282166
v -0.020284 0.163516 -0.293543
v 0.020284 0.163516 -0.293543
v 0.019451 0.140314 -0.292101
v -0.019451 0.140314 -0.292101
v -0.032834 0.364456 -0.056870
v -0.065667 0.364456 0.000000
v 0.032834 0.364456 -0.056870
v 0.065667 0.364456 0.000000
v 0.032834 0.364456 0.056870
v -0.032834 0.364456 0.056870
v -0.048510 0.494014 -0.080121
v -0.091702 0.510571 0.000000
v 0.037876 0.460900 -0.080121
v 0.081069 0.444342 0.000000
v 0.037876 0.460900 0.080121
v -0.048510 0.494014 0.080121
v 0.016758 0.615989 -0.011683
v -0.012387 0.623734 0.029582
v 0.065928 0.603163 -0.006199
v 0.085952 0.598083 0.040549
v 0.056807 0.605827 0.081814
v 0.007638 0.618653 0.076330
v -0.013460 0.677983 0.010609
v -0.041588 0.682865 0.053002
v 0.036845 0.669666 0.014135
v 0.059022 0.666230 0.060055
v 0.030894 0.671113 0.102448
v -0.019411 0.679430 0.098921
v 0.034377 0.879863 0.034840
vn -0.8653 -0.0407 0.4996
vn 0.8653 -0.0407 -0.4996
vn 0.8653 -0.0407 0.4996
vn 0.0000 -0.0407 0.9992
vn -0.4481 -0.8558 0.2587
vn -0.8546 0.1622 -0.4934
vn 0.0000 -0.0407 -0.9992
vn -0.8653 -0.0407 -0.4996
vn -0.8576 -0.1392 -0.4951
vn 0.0000 -0.1392 -0.9903
vn 0.8576 -0.1392 -0.4951
vn 0.8576 -0.1392 0.4951
vn 0.0000 -0.1392 0.9903
vn -0.8576 -0.1392 0.4951
vn 0.0000 -1.0000 0.0000
vn 0.0000 0.1622 -0.9868
vn 0.0000 0.1622 0.9868
vn 0.8546 0.1622 0.4934
vn 0.8546 0.1622 -0.4934
vn -0.8546 0.1622 0.4934
vn 0.0000 -0.9765 0.2156
vn -0.1867 -0.9765 -0.1078
vn -0.0000 0.9638 0.2667
vn 0.1867 -0.9765 0.1078
vn 0.1867 -0.9765 -0.1078
vn 0.1868 -0.9765 -0.1078
vn -0.2310 0.9638 0.1334
vn -0.2309 0.9638 0.1333
vn -0.8660 0.0000 0.5000
vn 0.4481 -0.8558 0.2587
vn 0.0000 -0.8558 -0.5174
vn 0.0000 -0.8558 0.5174
vn -0.4481 -0.8558 -0.2587
vn 0.4481 -0.8558 -0.2587
vn 0.8660 -0.0000 0.5000
vn 0.0000 0.0000 -1.0000
vn 0.0000 -0.0000 1.0000
vn 0.8660 -0.0000 -0.5000
vn -0.8660 0.0000 -0.5000
vn -0.8000 -0.3830 0.4619
vn 0.0000 1.0000 0.0000
vn 0.8000 -0.3830 0.4619
vn 0.0000 -0.3830 -0.9237
vn 0.0000 -0.3830 0.9237
vn 0.8000 -0.3830 -0.4619
vn -0.8000 -0.3830 -0.4619
vn 0.7826 0.4282 -0.4518
vn 0.7826 0.4282 -0.4519
vn -0.7826 0.4282 -0.4518
vn -0.7826 0.4282 -0.4519
vn 0.0000 0.4282 0.9037
vn 0.0000 0.4282 -0.9037
vn -0.7826 0.4282 0.4518
vn 0.7826 0.4282 0.4518
vn -0.9957 0.0436 0.0817
vn -0.9957 0.0436 0.0818
vn -0.0077 -0.1826 -0.9832
vn -0.0078 -0.1826 -0.9832
vn 0.9964 0.0219 -0.0819
vn 0.9964 0.0219 -0.0818
vn 0.0077 0.2127 0.9771
vn -0.4270 0.0436 0.9032
vn -0.8553 -0.1826 -0.4849
vn 0.4273 0.0219 -0.9038
vn 0.4274 0.0219 -0.9038
vn 0.8500 0.2127 0.4819
vn 0.5687 0.0436 0.8214
vn -0.8476 -0.1826 0.4983
vn -0.5691 0.0219 -0.8220
vn 0.8423 0.2127 -0.4952
vn 0.8424 0.2127 -0.4952
vn 0.9957 0.0436 -0.0818
vn 0.0077 -0.1826 0.9832
vn 0.0078 -0.1826 0.9832
vn -0.9964 0.0219 0.0818
vn -0.0077 0.2127 -0.9771
vn 0.4270 0.0436 -0.9032
vn 0.8553 -0.1826 0.4849
vn -0.4273 0.0219 0.9038
vn -0.4274 0.0219 0.9038
vn -0.8500 0.2127 -0.4819
vn -0.5687 0.0436 -0.8214
vn 0.8476 -0.1826 -0.4983
vn 0.5691 0.0219 0.8220
vn -0.8423 0.2127 0.4952
vn -0.8424 0.2127 0.4952
vn 0.0069 -0.4794 0.8776
vn 0.9951 -0.0549 -0.0818
vn 0.9951 -0.0549 -0.0817
vn -0.0071 0.4224 -0.9064
vn -0.9907 -0.1088 0.0813
vn -0.9907 -0.1088 0.0814
vn -0.7566 -0.4794 0.4448
vn 0.5684 -0.0549 0.8209
vn 0.7814 0.4224 -0.4594
vn -0.5658 -0.1088 -0.8173
vn -0.5659 -0.1088 -0.8173
vn -0.7635 -0.4794 -0.4328
vn -0.4268 -0.0549 0.9027
vn 0.7885 0.4224 0.4470
vn 0.4249 -0.1088 -0.8987
vn -0.0069 -0.4794 -0.8776
vn -0.9951 -0.0549 0.0817
vn 0.0071 0.4224 0.9064
vn 0.9907 -0.1088 -0.0814
vn 0.7635 -0.4794 0.4328
vn 0.4268 -0.0549 -0.9027
vn -0.7885 0.4224 -0.4470
vn -0.4249 -0.1088 0.8987
vn 0.7566 -0.4794 -0.4448
vn -0.5684 -0.0549 -0.8209
vn -0.7814 0.4224 0.4594
vn 0.5658 -0.1088 0.8173
vn 0.5659 -0.1088 0.8173
vn 0.3521 0.9136 0.2033
vn 0.3520 0.9136 0.2033
vn 0.3645 -0.9071 -0.2104
vn 0.0000 -0.9071 -0.4209
vn 0.0000 0.9136 0.4065
vn -0.3645 -0.9071 0.2104
vn -0.3521 0.9136 0.2033
vn -0.3520 0.9136 0.2033
vn -0.3520 0.9136 0.2032
vn -0.8555 0.1552 -0.4939
vn 0.2309 0.9638 0.1333
vn -0.8555 0.1552 0.4939
vn 0.8555 0.1552 -0.4939
vn 0.8555 0.1552 0.4939
vn -0.0000 0.1552 0.9879
vn -0.8644 -0.0620 -0.4990
vn 0.0000 -0.0620 0.9981
vn 0.8644 -0.0620 0.4990
vn 0.8644 -0.0620 -0.4990
vn -0.8644 -0.0620 0.4990
vn -0.3645 -0.9071 -0.2104
vn -0.3521 0.9136 -0.2033
vn -0.3520 0.9136 -0.2033
vn 0.3645 -0.9071 0.2104
vn 0.3521 0.9136 -0.2033
vn 0.3520 0.9136 -0.2033
vn 0.3520 0.9136 -0.2032
vn 0.0000 0.9136 -0.4065
vn 0.0000 -0.9071 0.4209
vn -0.1867 -0.9765 0.1078
vn -0.1868 -0.9765 0.1078
vn -0.2309 0.9638 -0.1333
vn 0.0000 -0.9765 -0.2156
vn 0.2309 0.9638 -0.1333
vn 0.0000 0.9638 -0.2666
vn 0.0000 0.1552 -0.9879
vn 0.0000 -0.0620 -0.9981
vn 0.9994 -0.0359 -0.0000
vn -0.9959 0.0903 0.0000
vn -0.9994 -0.0359 -0.0000
vn 0.9959 0.0903 0.0000
vn -0.1868 -0.9765 -0.1078
vn 0.0000 0.9638 0.2668
vn 0.1868 -0.9765 0.1078
vn 0.3520 0.9136 0.2032
vn -0.3520 0.9136 -0.2032
vn -0.0443 -0.2033 0.9781
vn -0.7910 0.4005 0.4625
vn -0.7911 0.4005 0.4625
vn 0.8540 -0.1642 -0.4937
vn 0.8540 -0.1641 -0.4938
vn 0.8540 -0.1642 -0.4936
vn -0.8702 -0.1706 -0.4623
vn -0.8702 -0.1707 -0.4623
vn -0.8701 -0.1707 -0.4623
vn -0.8702 -0.1706 0.4623
vn -0.8702 -0.1707 0.4623
vn 0.8540 -0.1642 0.4937
vn 0.8540 -0.1641 0.4938
vn 0.8539 -0.1640 0.4939
vn -0.0443 -0.2033 -0.9781
vn -0.1634 -0.3807 0.9101
vn -0.1633 -0.3807 0.9101
vn -0.1634 -0.3807 0.9102
vn 0.8377 -0.1414 0.5275
vn 0.1775 0.4174 -0.8912
vn -0.0345 0.0174 0.9993
vn 0.8976 0.0686 -0.4355
vn -0.6321 0.5954 -0.4959
vn 0.8257 0.1639 0.5397
vn 0.8305 0.1592 0.5337
vn 0.8310 0.1588 0.5331
vn 0.8298 0.4449 -0.3370
vn -0.8221 -0.2024 -0.5322
vn -0.8220 -0.2024 -0.5322
vn -0.8044 -0.5003 0.3204
vn 0.8253 0.1643 0.5402
vn 0.1628 0.3775 -0.9116
vn 0.0858 0.0987 -0.9914
vn -0.0157 0.3083 0.9512
vn 0.9008 0.0530 -0.4311
vn -0.7921 0.2543 -0.5549
vn -0.8295 0.3593 0.4275
vn 0.8539 -0.1640 -0.4939
vn -0.8701 -0.1707 0.4623
vn 0.8540 -0.1642 0.4936
vn 0.8975 0.0686 -0.4356
usemtl DarkMetal
s 1
f 140//1 2//1 139//1
f 143//2 8//2 142//2
f 8//3 141//3 142//3
f 10//4 140//4 141//4
f 12//5 32//5 2//5
f 14//6 9//6 16//6
f 4//7 143//7 144//7
f 2//8 144//8 139//8
f 14//9 15//9 13//9
f 18//10 15//10 16//10
f 20//11 17//11 18//11
f 20//12 21//12 19//12
f 24//13 21//13 22//13
f 14//14 23//14 24//14
f 19//15 21//15 23//15
f 9//16 18//16 16//16
f 1//17 24//17 22//17
f 20//18 1//18 22//18
f 5//19 20//19 18//19
f 7//20 14//20 24//20
f 7//21 152//21 156//21
f 11//22 151//22 9//22
f 25//23 174//23 169//23
f 3//24 152//24 1//24
f 3//25 154//25 153//26
f 30//27 173//28 174//27
f 36//29 38//29 32//29
f 10//30 34//30 35//30
f 4//31 33//31 6//31
f 10//32 36//32 12//32
f 4//33 32//33 31//33
f 6//34 34//34 8//34
f 41//15 48//15 42//15
f 34//35 41//35 35//35
f 31//36 39//36 33//36
f 35//37 42//37 36//37
f 33//38 40//38 34//38
f 32//39 37//39 31//39
f 44//40 54//40 50//40
f 40//15 45//15 46//15
f 38//15 43//15 37//15
f 38//15 48//15 44//15
f 40//15 47//15 41//15
f 37//15 45//15 39//15
f 53//41 60//41 54//41
f 46//42 53//42 47//42
f 43//43 51//43 45//43
f 47//44 54//44 48//44
f 46//45 51//45 52//45
f 44//46 49//46 43//46
f 56//47 66//48 62//47
f 52//41 57//41 58//41
f 50//41 55//41 49//41
f 54//41 56//41 50//41
f 53//41 58//41 59//41
f 49//41 57//41 51//41
f 65//41 188//41 66//41
f 58//49 65//50 59//50
f 55//51 63//51 57//51
f 59//52 66//52 60//52
f 57//53 64//53 58//53
f 55//54 62//54 61//54
f 67//15 70//15 68//15
f 74//41 71//41 72//41
f 71//55 115//56 116//56
f 115//57 74//58 117//57
f 117//59 72//60 118//59
f 72//61 116//61 118//61
f 75//15 78//15 76//15
f 82//41 79//41 80//41
f 79//62 131//62 132//62
f 131//63 82//63 133//63
f 133//64 80//65 134//64
f 80//66 132//66 134//66
f 83//15 86//15 84//15
f 90//41 87//41 88//41
f 87//67 135//67 136//67
f 135//68 90//68 137//68
f 137//69 88//69 138//69
f 88//70 136//71 138//71
f 91//15 94//15 92//15
f 98//41 95//41 96//41
f 95//72 127//72 128//72
f 127//73 98//74 129//73
f 129//75 96//75 130//75
f 96//76 128//76 130//76
f 99//15 102//15 100//15
f 106//41 103//41 104//41
f 103//77 123//77 124//77
f 123//78 106//78 125//78
f 125//79 104//80 126//79
f 104//81 124//81 126//81
f 107//15 110//15 108//15
f 114//41 111//41 112//41
f 111//82 119//82 120//82
f 119//83 114//83 121//83
f 121//84 112//84 122//84
f 112//85 120//86 122//86
f 68//87 116//87 67//87
f 117//88 68//89 70//89
f 115//90 70//90 69//90
f 67//91 115//92 69//91
f 108//93 120//93 107//93
f 121//94 108//94 110//94
f 119//95 110//95 109//95
f 107//96 119//97 109//96
f 100//98 124//98 99//98
f 125//99 100//99 102//99
f 123//100 102//100 101//100
f 99//101 123//101 101//101
f 92//102 128//102 91//102
f 129//103 92//103 94//103
f 127//104 94//104 93//104
f 91//105 127//105 93//105
f 76//106 132//106 75//106
f 133//107 76//107 78//107
f 131//108 78//108 77//108
f 75//109 131//109 77//109
f 84//110 136//110 83//110
f 137//111 84//111 86//111
f 135//112 86//112 85//112
f 83//113 135//114 85//113
f 142//115 163//116 164//115
f 146//117 167//117 166//117
f 148//118 167//118 147//118
f 140//119 163//119 141//119
f 149//120 159//120 157//120
f 139//121 160//122 140//123
f 173//124 151//124 155//124
f 30//1 149//1 29//1
f 27//2 146//2 26//2
f 146//3 25//3 26//3
f 25//4 150//4 30//4
f 28//7 147//7 27//7
f 25//125 170//125 26//125
f 174//126 155//126 156//126
f 154//127 170//127 153//127
f 170//128 152//128 153//128
f 152//129 174//129 156//129
f 162//41 179//41 161//41
f 157//130 161//130 168//130
f 171//41 177//41 172//41
f 163//131 159//131 165//131
f 166//132 163//132 165//132
f 162//133 166//133 167//133
f 160//134 157//134 159//134
f 149//135 168//135 148//135
f 139//136 161//137 158//136
f 146//138 165//138 145//138
f 142//139 162//140 143//141
f 143//142 161//142 144//142
f 145//143 159//143 150//143
f 149//8 28//8 29//8
f 11//144 156//144 155//145
f 28//146 173//146 29//146
f 5//147 151//147 154//147
f 27//148 170//148 171//148
f 28//149 171//149 172//149
f 177//150 176//150 175//150
f 179//151 181//151 182//151
f 162//152 181//152 180//152
f 151//153 177//153 175//153
f 151//15 176//15 154//15
f 161//154 182//154 168//154
f 154//155 178//155 171//155
f 168//15 181//15 167//15
f 64//41 185//41 186//41
f 62//41 183//41 61//41
f 62//41 188//41 184//41
f 64//41 187//41 65//41
f 61//41 185//41 63//41
f 140//1 12//1 2//1
f 143//2 6//2 8//2
f 8//3 10//3 141//3
f 10//4 12//4 140//4
f 12//5 36//5 32//5
f 14//6 11//6 9//6
f 4//7 6//7 143//7
f 2//8 4//8 144//8
f 14//9 16//9 15//9
f 18//10 17//10 15//10
f 20//11 19//11 17//11
f 20//12 22//12 21//12
f 24//13 23//13 21//13
f 14//14 13//14 23//14
f 23//15 13//15 19//15
f 13//15 15//15 19//15
f 15//15 17//15 19//15
f 9//16 5//16 18//16
f 1//17 7//17 24//17
f 20//18 3//18 1//18
f 5//19 3//19 20//19
f 7//20 11//20 14//20
f 7//21 1//21 152//21
f 11//22 155//156 151//22
f 25//23 30//157 174//23
f 3//24 153//158 152//24
f 3//25 5//25 154//25
f 30//27 29//28 173//28
f 36//29 42//29 38//29
f 10//30 8//30 34//30
f 4//31 31//31 33//31
f 10//32 35//32 36//32
f 4//33 2//33 32//33
f 6//34 33//34 34//34
f 41//15 47//15 48//15
f 34//35 40//35 41//35
f 31//36 37//36 39//36
f 35//37 41//37 42//37
f 33//38 39//38 40//38
f 32//39 38//39 37//39
f 44//40 48//40 54//40
f 40//15 39//15 45//15
f 38//15 44//15 43//15
f 38//15 42//15 48//15
f 40//15 46//15 47//15
f 37//15 43//15 45//15
f 53//41 59//41 60//41
f 46//42 52//42 53//42
f 43//43 49//43 51//43
f 47//44 53//44 54//44
f 46//45 45//45 51//45
f 44//46 50//46 49//46
f 56//47 60//48 66//48
f 52//41 51//41 57//41
f 50//41 56//41 55//41
f 54//41 60//41 56//41
f 53//41 52//41 58//41
f 49//41 55//41 57//41
f 65//41 187//41 188//41
f 58//49 64//49 65//50
f 55//51 61//51 63//51
f 59//52 65//52 66//52
f 57//53 63//53 64//53
f 55//54 56//54 62//54
f 67//15 69//15 70//15
f 74//41 73//41 71//41
f 71//55 73//55 115//56
f 115//57 73//58 74//58
f 117//59 74//60 72//60
f 72//61 71//61 116//61
f 75//15 77//15 78//15
f 82//41 81//41 79//41
f 79//62 81//62 131//62
f 131//63 81//63 82//63
f 133//64 82//65 80//65
f 80//66 79//66 132//66
f 83//15 85//15 86//15
f 90//41 89//41 87//41
f 87//67 89//67 135//67
f 135//68 89//68 90//68
f 137//69 90//69 88//69
f 88//70 87//70 136//71
f 91//15 93//15 94//15
f 98//41 97//41 95//41
f 95//72 97//72 127//72
f 127//73 97//74 98//74
f 129//75 98//75 96//75
f 96//76 95//76 128//76
f 99//15 101//15 102//15
f 106//41 105//41 103//41
f 103//77 105//77 123//77
f 123//78 105//78 106//78
f 125//79 106//80 104//80
f 104//81 103//81 124//81
f 107//15 109//15 110//15
f 114//41 113//41 111//41
f 111//82 113//82 119//82
f 119//83 113//83 114//83
f 121//84 114//84 112//84
f 112//85 111//85 120//86
f 68//87 118//87 116//87
f 117//88 118//88 68//89
f 115//90 117//90 70//90
f 67//91 116//92 115//92
f 108//93 122//93 120//93
f 121//94 122//94 108//94
f 119//95 121//95 110//95
f 107//96 120//97 119//97
f 100//98 126//98 124//98
f 125//99 126//99 100//99
f 123//100 125//100 102//100
f 99//101 124//101 123//101
f 92//102 130//102 128//102
f 129//103 130//103 92//103
f 127//104 129//104 94//104
f 91//105 128//105 127//105
f 76//106 134//106 132//106
f 133//107 134//107 76//107
f 131//108 133//108 78//108
f 75//109 132//109 131//109
f 84//110 138//110 136//110
f 137//111 138//111 84//111
f 135//112 137//112 86//112
f 83//113 136//114 135//114
f 142//115 141//159 163//116
f 146//117 147//117 167//117
f 148//118 168//118 167//118
f 140//119 160//119 163//119
f 149//120 150//120 159//120
f 139//121 158//121 160//122
f 173//124 172//124 151//124
f 30//1 150//1 149//1
f 27//2 147//2 146//2
f 146//3 145//3 25//3
f 25//4 145//4 150//4
f 28//7 148//7 147//7
f 25//125 169//125 170//125
f 174//126 173//126 155//126
f 154//127 171//127 170//127
f 170//128 169//128 152//128
f 152//129 169//129 174//129
f 162//41 180//41 179//41
f 157//130 158//130 161//130
f 171//41 178//41 177//41
f 163//131 160//131 159//131
f 166//132 164//132 163//132
f 162//133 164//133 166//133
f 160//134 158//134 157//134
f 149//135 157//135 168//135
f 139//136 144//160 161//137
f 146//138 166//138 165//138
f 142//139 164//139 162//140
f 143//142 162//142 161//142
f 145//143 165//143 159//143
f 149//8 148//8 28//8
f 11//144 7//144 156//144
f 28//146 172//146 173//146
f 5//147 9//147 151//147
f 27//148 26//148 170//148
f 28//149 27//149 171//149
f 177//150 178//150 176//150
f 179//151 180//151 181//151
f 162//152 167//152 181//152
f 151//153 172//153 177//153
f 151//15 175//15 176//15
f 161//154 179//154 182//154
f 154//155 176//155 178//155
f 168//15 182//15 181//15
f 64//41 63//41 185//41
f 62//41 184//41 183//41
f 62//41 66//41 188//41
f 64//41 186//41 187//41
f 61//41 183//41 185//41
usemtl Fire
f 188//161 193//161 194//161
f 194//162 196//162 190//163
f 185//164 192//165 186//166
f 184//167 189//168 183//169
f 184//170 194//171 190//171
f 187//172 192//173 193//174
f 183//175 191//175 185//175
f 200//176 205//177 206//178
f 193//179 198//179 199//179
f 191//180 195//180 197//180
f 194//181 199//181 200//181
f 192//182 197//182 198//182
f 190//183 195//183 189//183
f 205//184 204//185 207//186
f 198//187 203//187 204//187
f 196//188 201//188 195//189
f 200//190 202//190 196//190
f 199//191 204//185 205//184
f 195//192 203//192 197//192
f 203//193 201//193 207//193
f 206//194 205//194 207//194
f 204//195 203//195 207//195
f 201//196 202//196 207//196
f 202//197 206//197 207//197
f 188//161 187//161 193//161
f 194//162 200//163 196//162
f 185//164 191//198 192//165
f 184//167 190//168 189//168
f 184//170 188//199 194//171
f 187//172 186//200 192//173
f 183//175 189//175 191//175
f 200//176 199//176 205//177
f 193//179 192//179 198//179
f 191//180 189//180 195//180
f 194//181 193//181 199//181
f 192//182 191//201 197//182
f 190//183 196//183 195//183
f 198//187 197//187 203//187
f 196//188 202//189 201//188
f 200//190 206//190 202//190
f 199//191 198//191 204//185
f 195//192 201//192 203//192
